# xmcd
#
# Track frame offsets:
#	150
#	14839
#	21820
#	37066
#	50135
#	61920
#	72503
#	86218
#	93884
#	104483
#	113531
#	129851
#
# Disc length: 2037 seconds
#
# Revision: 1
# Processed by: cddbd v1.5.2PL0 Copyright (c) Steve Scherf et al.
# Submitted via: audiograbber 1.83.01
#
DISCID=a507f30c
DTITLE=Kirby Knob Boys - Reminiscing Vol. 1
DYEAR=1900
DGENRE=Bluegrass
TTITLE0=Duncan and Brady
TTITLE1=Little Rosewood Casket
TTITLE2=The Easy Chair
TTITLE3=Leaving Ashland
TTITLE4=Grandpa the Preacher
TTITLE5=Matterhorn
TTITLE6=You Are My Flower
TTITLE7=Walkin' Down the Line
TTITLE8=Rescue Me
TTITLE9=Give Me My Flowers
TTITLE10=Long Black Veil
TTITLE11=I Know You Rider
EXTD=
EXTT0=
EXTT1=
EXTT2=
EXTT3=
EXTT4=
EXTT5=
EXTT6=
EXTT7=
EXTT8=
EXTT9=
EXTT10=
EXTT11=
PLAYORDER=
